<svg xmlns="http://www.w3.org/2000/svg" width="259.511" height="38.095" viewBox="0 0 259.511 38.095">
  <g id="Grupo_15" data-name="Grupo 15" transform="translate(-140 -9.905)">
    <text id="FerreiraContact" transform="translate(140 40)" fill="#fff" font-size="32" font-family="Roboto-Bold, Roboto" font-weight="700"><tspan x="0" y="0">Ferreiracontact</tspan></text>
    <path id="Icon_awesome-headphones" data-name="Icon awesome-headphones" d="M14.208,2.25A14.2,14.2,0,0,0,0,16.458v2.664a1.776,1.776,0,0,0,.982,1.589l.8.4a6.216,6.216,0,0,0,6.212,6H9.324a1.332,1.332,0,0,0,1.332-1.332V16.014a1.332,1.332,0,0,0-1.332-1.332H7.992a6.2,6.2,0,0,0-4.44,1.866v-.09a10.656,10.656,0,1,1,21.312,0v.09a6.2,6.2,0,0,0-4.44-1.866H19.092a1.332,1.332,0,0,0-1.332,1.332v9.768a1.332,1.332,0,0,0,1.332,1.332h1.332a6.216,6.216,0,0,0,6.212-6l.8-.4a1.776,1.776,0,0,0,.982-1.589V16.458A14.2,14.2,0,0,0,14.208,2.25Z" transform="matrix(0.891, 0.454, -0.454, 0.891, 375.214, 7.9)" fill="#fff"/>
  </g>
</svg>
